<?xml version="1.0" encoding="utf-8"?>
<!-- Generator: Adobe Illustrator 25.0.0, SVG Export Plug-In . SVG Version: 6.00 Build 0)  -->
<svg version="1.1" id="Layer_1" xmlns="http://www.w3.org/2000/svg" xmlns:xlink="http://www.w3.org/1999/xlink" x="0px" y="0px"
	 viewBox="0 0 404.4 391.1" style="enable-background:new 0 0 404.4 391.1;" xml:space="preserve">
<style type="text/css">
	.st0{fill:#EBEBEB;}
	.st1{fill:#E0E0E0;}
	.st2{fill:#F0F0F0;}
	.st3{fill:#FFFFFF;}
	.st4{fill:#FAFAFA;}
	.st5{opacity:0.32;fill:#E0E0E0;enable-background:new    ;}
	.st6{fill:none;}
	.st7{fill:#263238;}
	.st8{fill:#E8505B;}
	.st9{opacity:0.3;}
	.st10{opacity:0.1;enable-background:new    ;}
	.st11{opacity:0.1;}
	.st12{opacity:0.2;}
	.st13{fill:#455A64;}
	.st14{fill:#F5F5F5;}
	.st15{fill:#B78876;}
	.st16{fill:#A36957;}
</style>
<g id="Background_Complete">
	<path class="st0" d="M228.6,4.9L86,69.5l256,63.6L246.8,9.5C242.5,3.9,235,2,228.6,4.9z"/>
	<path class="st1" d="M84.3,69.7l144-65.2c6.6-3,14.4-1.1,18.9,4.7l96.1,124.9L84.3,69.7z M234.8,4.1c-2.1,0-4.1,0.4-6.1,1.3
		l-141.2,64l253.1,62.9L246.4,9.8l0,0C243.6,6.2,239.4,4.1,234.8,4.1L234.8,4.1z"/>
	<path class="st2" d="M342,133.2l-34.6,139.2c-1.4,5.7-7.2,9.2-13,7.8L58.3,221.5c-5.7-1.4-9.2-7.2-7.8-13L85.1,69.3l0,0L342,133.2
		L342,133.2z"/>
	<path class="st3" d="M117.2,11.1C117.2,11.1,117.2,11.1,117.2,11.1c1.9-7.7,9.7-12.4,17.4-10.5L329.2,49
		c7.6,1.9,12.3,9.6,10.6,17.2l-15.4,71.3l-134.5,30.3l-89-90.9L117.2,11.1z"/>
	<path class="st1" d="M189,157.6L50.8,206.4l-0.2,0.9c-1.6,6.3,2.3,12.7,8.6,14.3l234.3,58.2c0,0,0,0,0,0c6.3,1.6,12.7-2.3,14.3-8.6
		l0,0L202.1,160.7C198.7,157.2,193.6,156,189,157.6z"/>
	<rect x="269" y="33.7" transform="matrix(0.2414 -0.9704 0.9704 0.2414 136.3196 320.2064)" class="st1" width="8" height="78.4"/>
	
		<rect x="217" y="-5.4" transform="matrix(0.2414 -0.9704 0.9704 0.2414 88.9004 276.8878)" class="st1" width="9.1" height="174.1"/>
	
		<rect x="211.7" y="16" transform="matrix(0.2414 -0.9704 0.9704 0.2414 64.0259 287.9793)" class="st1" width="9.1" height="174.1"/>
	<polygon class="st1" points="126.5,103.1 127.2,100.2 295.6,142.1 294.9,144.1 276.4,148.4 134.6,111.4 129.3,106.1 	"/>
	<polygon class="st1" points="153.5,130.7 249,154.4 229.5,158.9 165.6,143 	"/>
	<path class="st4" d="M206.3,165l0.8,0.8l3,3.1l11,11.4c9.2,9.7,22.1,23,36.2,37.7c14.2,14.7,27.1,28,36.5,37.5l11.2,11.3l3,3.1
		l0.8,0.8c0.1,0.1,0.2,0.2,0.2,0.3c-0.1-0.1-0.2-0.2-0.3-0.2l-0.8-0.8l-3.1-3c-2.7-2.6-6.5-6.4-11.3-11.2
		c-9.5-9.5-22.5-22.7-36.6-37.4c-14.2-14.7-26.9-28.1-36.2-37.8L209.9,169l-2.9-3.1L206.3,165c-0.2-0.2-0.3-0.3-0.3-0.3
		S206.1,164.8,206.3,165z"/>
	<path class="st4" d="M116.5,183c36.3-12.8,65.8-23,65.8-22.8s-29.3,10.6-65.6,23.4s-65.8,23-65.8,22.9
		C50.8,206.2,80.2,195.7,116.5,183z"/>
	<path class="st4" d="M96.9,72.8l0.6,0.7L100,76l9,9.5c7.6,8,18,19,29.7,31s22.3,22.9,30.1,30.7l9.2,9.2l2.5,2.5l0.6,0.7
		c0.1,0.1,0.1,0.2,0.2,0.2c0,0-0.1-0.1-0.2-0.2l-0.7-0.6l-2.6-2.4l-9.3-9.1c-7.8-7.7-18.6-18.5-30.3-30.6s-22.1-23.1-29.6-31.2
		l-8.8-9.6l-2.4-2.6L96.9,72.8c-0.1-0.1-0.2-0.2-0.2-0.2C96.7,72.6,96.8,72.7,96.9,72.8z"/>
	<path class="st4" d="M206.3,164.6l1-0.3l3.9-1.1c3.4-0.9,8.4-2.2,14.5-3.7c12.3-3,29.3-6.8,48.1-10.9s35.9-7.8,48.2-10.7
		c6.1-1.4,11.1-2.6,14.5-3.5l4-1l1-0.2l0.4-0.1c-0.1,0.1-0.2,0.1-0.3,0.1l-1,0.3l-3.9,1.1c-3.4,0.9-8.4,2.2-14.5,3.7
		c-12.3,3-29.3,6.8-48.1,10.9s-35.9,7.8-48.2,10.7c-6.1,1.4-11.1,2.6-14.5,3.5l-4,1L206.3,164.6c-0.1,0.1-0.2,0.1-0.3,0.1
		L206.3,164.6z"/>
	<path class="st1" d="M101,76c0.1-0.7,0.4-1.6,0.7-2.9c0.6-2.5,1.5-6.2,2.7-10.9l9.9-40.2c0.5-2.1,1.1-4.3,1.6-6.5
		c0.3-1.1,0.5-2.2,0.8-3.4c0.1-0.6,0.3-1.1,0.5-1.7c0.2-0.6,0.4-1.1,0.6-1.7c1-2.3,2.6-4.3,4.5-5.7c3.1-2.4,7.1-3.4,11-2.8
		c1.3,0.2,2.6,0.6,3.9,0.9L145,3L161.4,7l73,18.1l73,18.2l16.4,4.1l4,1c1.3,0.3,2.6,0.7,3.9,1.2c1.2,0.5,2.4,1.2,3.4,2.1
		c1,0.8,1.9,1.8,2.7,2.9c0.7,1.1,1.4,2.2,1.8,3.4c0.4,1.2,0.7,2.4,0.8,3.7c0.3,2.5-0.4,5-0.9,7.3c-1,4.7-2,9.1-2.9,13.4
		c-3.7,17.1-6.7,30.9-8.8,40.4c-1,4.8-1.9,8.5-2.4,11c-0.3,1.2-0.5,2.2-0.6,2.9s-0.2,1-0.2,1s0-0.3,0.2-1c0.1-0.7,0.3-1.6,0.6-2.9
		c0.5-2.5,1.3-6.2,2.3-11c2-9.6,5-23.4,8.6-40.5c0.9-4.3,1.9-8.7,2.9-13.4c0.5-2.3,1.2-4.7,0.9-7.1c-0.1-1.2-0.4-2.4-0.8-3.6
		c-0.4-1.2-1-2.3-1.8-3.3c-1.5-2.1-3.5-3.8-5.9-4.8c-1.2-0.5-2.5-0.9-3.8-1.2l-4-1l-16.4-4.1l-73-18.1L161.4,7.5L145,3.4l-7.9-2
		c-1.3-0.3-2.6-0.7-3.8-0.9c-1.3-0.2-2.5-0.2-3.8,0c-5,0.6-9.2,3.7-11.2,8.3c-0.2,0.5-0.4,1.1-0.6,1.6c-0.2,0.6-0.3,1.1-0.5,1.7
		c-0.3,1.1-0.6,2.3-0.8,3.4c-0.6,2.2-1.1,4.4-1.6,6.5l-10.1,40.1c-1.2,4.7-2.1,8.4-2.8,10.9l-0.7,2.8c-0.2,0.7-0.3,1-0.3,1
		S100.8,76.6,101,76z"/>
</g>
<g id="Background_Simple">
	<path class="st5" d="M332.1,13.9C256,8.2,231,104,184.1,121.6C105.6,151,10.5,112.8,0.4,204c-9.1,82.2,128.7,127.2,204.2,113.1
		c135.8-25.4,182.1-91.4,193.9-184C404.8,83.6,392.3,18.3,332.1,13.9z"/>
</g>
<g id="Floor">
	<line class="st6" x1="0.4" y1="390.5" x2="404.4" y2="390.5"/>
	<path class="st7" d="M202.4,390.2c111.6,0,202,0.1,202,0.3s-90.4,0.3-202,0.3s-202-0.1-202-0.3C0.4,390.4,90.8,390.2,202.4,390.2z"
		/>
</g>
<g id="Mail_Sent">
	<polygon class="st8" points="255.2,19.7 236.2,43.2 231.2,38.9 222.1,46.1 222.6,31.7 212.7,24.2 	"/>
	<path class="st8" d="M231.2,38.9l-9.1,7.2c0,0,4.2-10.9,4.2-11.3L231.2,38.9z"/>
	<g class="st9">
		<path d="M231.2,38.9l-9.1,7.2c0,0,4.2-10.9,4.2-11.3L231.2,38.9z"/>
	</g>
	<polygon class="st8" points="222.6,31.7 222.1,46.1 226.3,34.8 255.2,19.7 	"/>
	<polygon class="st10" points="222.6,31.7 222.1,46.1 226.3,34.8 255.2,19.7 	"/>
	<path class="st7" d="M180.3,212.5c-1.6,0.8-3.4,1.2-5.1,1.2C176.8,213,178.5,212.5,180.3,212.5z"/>
	<path class="st7" d="M168.4,215.1c0.9-0.2,1.6-0.3,1.6-0.1s-0.6,0.4-1.5,0.6s-1.6,0.2-1.6,0.1C166.9,215.6,167.6,215.3,168.4,215.1
		z"/>
	<path class="st7" d="M203.2,43.2c0.9-0.3,1.8-0.4,2.6-0.3c-0.8,0.4-1.6,0.7-2.5,0.8c-0.8,0.3-1.7,0.4-2.6,0.4
		C201.5,43.7,202.3,43.4,203.2,43.2z"/>
	<path class="st7" d="M193.3,46.8c0.8-0.5,1.6-0.8,2.5-0.9c-1.4,1-3,1.8-4.7,2.4C191,48.2,191.9,47.5,193.3,46.8z"/>
	<path class="st7" d="M184.4,52.7c0.6-0.7,1.4-1.1,2.2-1.5c0.1,0.1-0.8,0.9-1.9,1.9s-2,1.7-2.1,1.6
		C182.6,54.6,183.3,53.7,184.4,52.7z"/>
	<path class="st7" d="M177.4,60.7c0.8-1.2,1.7-2.1,1.8-2c-0.3,0.8-0.7,1.6-1.3,2.3c-0.8,1.2-1.5,2.2-1.6,2.1
		C176.5,62.2,176.8,61.3,177.4,60.7z"/>
	<path class="st7" d="M173,70.3c0.2-0.9,0.5-1.7,1.1-2.4c0,0.9-0.2,1.8-0.5,2.6c-0.2,0.9-0.5,1.7-0.9,2.5
		C172.5,72,172.7,71.1,173,70.3z"/>
	<path class="st7" d="M171.7,80.8c-0.1-0.9,0-1.8,0.3-2.6c0.2,0.9,0.3,1.7,0.2,2.6c0.1,0.9,0.1,1.8-0.1,2.6
		C171.7,82.6,171.6,81.7,171.7,80.8z"/>
	<path class="st7" d="M173.6,91.2c-0.4-0.8-0.6-1.7-0.5-2.6c0.5,0.8,0.8,1.6,1,2.4c0.4,0.8,0.6,1.7,0.7,2.5
		C174.2,92.9,173.8,92.1,173.6,91.2z"/>
	<path class="st7" d="M178.9,100.4c-0.7-0.6-1.1-1.4-1.4-2.2c0.1-0.1,0.9,0.8,1.8,1.9s1.7,2,1.6,2.1
		C180.8,102.2,179.9,101.5,178.9,100.4z"/>
	<path class="st7" d="M187.2,106.9c-0.8-0.3-1.6-0.9-2.2-1.6c0.9,0.2,1.7,0.6,2.4,1.1c0.8,0.3,1.6,0.8,2.3,1.4
		C188.9,107.7,188,107.4,187.2,106.9z"/>
	<path class="st7" d="M197.3,110c-0.9,0-1.8-0.3-2.6-0.7c0.9-0.1,1.8,0,2.6,0.2c0.9,0,1.8,0.2,2.6,0.5
		C199.1,110.2,198.2,110.3,197.3,110z"/>
	<path class="st7" d="M208,109.2c-0.8,0.3-1.7,0.5-2.6,0.4c1.6-0.7,3.3-1.2,5-1.5C209.6,108.6,208.8,109,208,109.2z"/>
	<path class="st7" d="M216.6,103.3c-0.9,1.2-1.8,2-1.9,1.8s0.7-1,1.5-2.1s1.3-2.2,1.4-2.2C217.6,101.7,217.2,102.6,216.6,103.3z"/>
	<path class="st7" d="M215.7,93.5c1.3,0.9,1.7,2.1,1.6,2.2s-0.8-0.9-1.9-1.7s-2.2-1.2-2.2-1.3C214.1,92.6,215,92.9,215.7,93.5z"/>
	<path class="st7" d="M205.5,94.1c0.6-0.7,1.5-1.1,2.4-1.2c0.1,0.1-1,0.6-2,1.6s-1.7,1.9-1.8,1.9C204.3,95.5,204.8,94.7,205.5,94.1z
		"/>
	<path class="st7" d="M202.8,104.1c-0.3-0.9-0.3-1.8,0-2.7c0.3,0.8,0.4,1.7,0.5,2.6c0.3,0.8,0.4,1.7,0.5,2.6
		C203.2,105.9,202.9,105,202.8,104.1z"/>
	<path class="st7" d="M208.4,113c-1.1-0.9-1.8-1.9-1.7-2s1,0.7,2.1,1.6s2,1.7,1.9,1.8C210.6,114.6,209.5,113.9,208.4,113z"/>
	<path class="st7" d="M220,119.3c-1.7-0.4-3.4-1.1-4.8-2.2c0.9,0.1,1.7,0.4,2.5,0.9C218.6,118.2,219.3,118.7,220,119.3L220,119.3z"
		/>
	<path class="st7" d="M227,122.9c-1.2-0.7-2.3-1.3-2.2-1.5c0.9,0.1,1.7,0.5,2.5,1c1.3,0.8,2.2,1.5,2.1,1.6
		C228.5,123.9,227.7,123.5,227,122.9z"/>
	<path class="st7" d="M235.4,129.2c-1-1-1.8-1.9-1.7-2c0.8,0.4,1.6,0.9,2.1,1.6c1.1,1,1.7,2,1.6,2.1
		C237.2,131,236.4,130.2,235.4,129.2z"/>
	<path class="st7" d="M241.9,137.4c-0.5-0.7-1-1.5-1.2-2.4c0.1-0.1,0.9,0.8,1.7,2.1c0.5,0.7,0.9,1.5,1.1,2.4
		C243.3,139.6,242.6,138.6,241.9,137.4z"/>
	<path class="st7" d="M247.2,149.4c-0.8-1.6-1.3-3.3-1.6-5c0.6,0.7,1,1.5,1.1,2.4C247.1,147.6,247.3,148.5,247.2,149.4L247.2,149.4z
		"/>
	<path class="st7" d="M248.3,157.2c-0.2-0.9-0.2-1.8,0-2.6c0.6,1.7,0.7,3.5,0.4,5.3C248.4,159,248.2,158.1,248.3,157.2z"/>
	<path class="st7" d="M247.5,167.6c0.1-0.9,0.4-1.7,0.8-2.5c0.1,0.9,0.1,1.8-0.2,2.6c-0.1,0.9-0.4,1.7-0.8,2.5
		C247.2,169.3,247.3,168.4,247.5,167.6z"/>
	<path class="st7" d="M244.2,177.5c0.3-0.8,0.8-1.6,1.3-2.3c-0.1,0.9-0.4,1.8-0.9,2.5c-0.7,1.3-1.4,2.3-1.5,2.2
		C243.4,179.1,243.7,178.2,244.2,177.5z"/>
	<path class="st7" d="M238.4,186.2c0.9-1.1,1.7-2,1.9-1.9c-0.3,0.8-0.8,1.6-1.4,2.2c-1,1.1-1.9,1.9-2,1.8
		C236.7,188.2,237.5,187.3,238.4,186.2z"/>
	<path class="st7" d="M230.7,193.3c0.7-0.6,1.4-1.1,2.2-1.4c0.1,0.1-0.7,1-1.9,1.8c-0.7,0.6-1.5,1-2.3,1.3
		C228.7,194.9,229.6,194.2,230.7,193.3z"/>
	<path class="st7" d="M221.6,198.4c0.8-0.4,1.6-0.7,2.5-0.8c-0.6,0.6-1.4,1.1-2.3,1.3c-0.8,0.4-1.7,0.6-2.6,0.6
		C220,199.1,220.8,198.7,221.6,198.4z"/>
	<path class="st7" d="M213.9,200.7c0.1,0,0.1,0.1,0.1,0.2s0.1,0.3,0,0.3s-0.1-0.1-0.1-0.2C213.9,200.8,213.9,200.7,213.9,200.7z"/>
	
		<rect x="222.4" y="172.8" transform="matrix(0.9501 -0.312 0.312 0.9501 -43.6369 79.9964)" class="st8" width="11.5" height="7.2"/>
	<g class="st9">
		<rect x="222.4" y="172.8" transform="matrix(0.9501 -0.312 0.312 0.9501 -43.6369 79.9964)" width="11.5" height="7.2"/>
	</g>
	<path class="st8" d="M228.1,176.9l-0.3,0.1l0.2-0.2c1.4-2,2.9-3.8,4.5-5.5c-1.2,2.1-2.6,4-4.1,5.9l-0.2,0.2l-0.1,0.2l-0.2-0.1
		c-2.2-0.7-4.3-1.6-6.3-2.6C223.8,175.3,226,176,228.1,176.9z"/>
	<g class="st11">
		<path d="M228.1,176.9l-0.3,0.1l0.2-0.2c1.4-2,2.9-3.8,4.5-5.5c-1.2,2.1-2.6,4-4.1,5.9l-0.2,0.2l-0.1,0.2l-0.2-0.1
			c-2.2-0.7-4.3-1.6-6.3-2.6C223.8,175.3,226,176,228.1,176.9z"/>
	</g>
	<path class="st8" d="M232.2,176.4c0.9,0.4,1.8,0.9,2.6,1.6c-1-0.2-1.9-0.6-2.8-1.1c-0.9-0.4-1.8-0.9-2.6-1.6
		C230.4,175.5,231.3,175.9,232.2,176.4z"/>
	<g class="st11">
		<path d="M232.2,176.4c0.9,0.4,1.8,0.9,2.6,1.6c-1-0.2-1.9-0.6-2.8-1.1c-0.9-0.4-1.8-0.9-2.6-1.6
			C230.4,175.5,231.3,175.9,232.2,176.4z"/>
	</g>
	<path class="st8" d="M224.5,178.9c0.3-0.9,0.8-1.8,1.4-2.5c0.2,0-0.2,1.3-0.9,2.8c-0.3,0.9-0.8,1.8-1.4,2.5
		C223.8,180.7,224.1,179.7,224.5,178.9z"/>
	<g class="st11">
		<path d="M224.5,178.9c0.3-0.9,0.8-1.8,1.4-2.5c0.2,0-0.2,1.3-0.9,2.8c-0.3,0.9-0.8,1.8-1.4,2.5
			C223.8,180.7,224.1,179.7,224.5,178.9z"/>
	</g>
	
		<rect x="179.1" y="196.3" transform="matrix(0.9501 -0.312 0.312 0.9501 -54.4484 70.7723)" class="st8" width="29.6" height="18.4"/>
	<path class="st8" d="M178.4,201.8l3.6,1.2c3,1,7.1,2.5,11.8,4.2l-0.3,0.1l0.5-0.6c3.1-4.1,5.9-7.7,7.9-10.3l2.4-3.1
		c0.3-0.4,0.6-0.8,1-1.1c-0.2,0.4-0.5,0.8-0.8,1.2l-2.3,3.2c-2,2.7-4.7,6.4-7.8,10.4l-0.5,0.6l-0.1,0.2l-0.2-0.1
		c-4.6-1.7-8.7-3.2-11.7-4.4l-3.5-1.4c-0.4-0.1-0.9-0.3-1.3-0.6C177.5,201.5,177.9,201.6,178.4,201.8z"/>
	<g class="st12">
		<path d="M178.4,201.8l3.6,1.2c3,1,7.1,2.5,11.8,4.2l-0.3,0.1l0.5-0.6c3.1-4.1,5.9-7.7,7.9-10.3l2.4-3.1c0.3-0.4,0.6-0.8,1-1.1
			c-0.2,0.4-0.5,0.8-0.8,1.2l-2.3,3.2c-2,2.7-4.7,6.4-7.8,10.4l-0.5,0.6l-0.1,0.2l-0.2-0.1c-4.6-1.7-8.7-3.2-11.7-4.4l-3.5-1.4
			c-0.4-0.1-0.9-0.3-1.3-0.6C177.5,201.5,177.9,201.6,178.4,201.8z"/>
	</g>
	<path class="st8" d="M204.1,206.1c2.4,1,4.6,2.3,6.8,3.6c-2.4-0.9-4.8-1.9-7.1-3.1c-2.4-1.1-4.6-2.3-6.8-3.6
		C199.5,203.8,201.8,204.8,204.1,206.1z"/>
	<g class="st12">
		<path d="M204.1,206.1c2.4,1,4.6,2.3,6.8,3.6c-2.4-0.9-4.8-1.9-7.1-3.1c-2.4-1.1-4.6-2.3-6.8-3.6
			C199.5,203.8,201.8,204.8,204.1,206.1z"/>
	</g>
	<path class="st8" d="M185,212.2c0.9-2.3,2-4.5,3.2-6.7c-0.7,2.4-1.6,4.7-2.7,6.9c-0.9,2.3-2,4.5-3.2,6.7
		C183,216.7,183.9,214.4,185,212.2z"/>
	<g class="st12">
		<path d="M185,212.2c0.9-2.3,2-4.5,3.2-6.7c-0.7,2.4-1.6,4.7-2.7,6.9c-0.9,2.3-2,4.5-3.2,6.7C183,216.7,183.9,214.4,185,212.2z"/>
	</g>
	<path class="st7" d="M203.6,196.5c-2-1.4-2.4-4.2-0.9-6.1c1.4-2,4.2-2.4,6.1-0.9c2,1.4,2.4,4.2,0.9,6.1
		C208.3,197.5,205.6,197.9,203.6,196.5C203.6,196.5,203.6,196.5,203.6,196.5z"/>
	<path class="st3" d="M206.5,193.7l0.7,0.4l-0.2,0.1c0.4-0.8,0.9-1.5,1.4-2.2c-0.3,0.8-0.7,1.6-1.2,2.4l-0.1,0.1l-0.1-0.1l-0.7-0.4
		c-1-0.5-2-1.1-2.9-1.8C204.5,192.6,205.5,193.1,206.5,193.7z"/>
	
		<rect x="196.2" y="175.2" transform="matrix(0.9501 -0.312 0.312 0.9501 -45.9785 72.6148)" class="st8" width="15.5" height="9.6"/>
	<g class="st12">
		<rect x="196.2" y="175.2" transform="matrix(0.9501 -0.312 0.312 0.9501 -45.9785 72.6148)" width="15.5" height="9.6"/>
	</g>
	<path class="st8" d="M195.8,178.1l1.9,0.6c1.6,0.5,3.8,1.3,6.2,2.2h-0.2l0.2-0.3c1.6-2.1,3.1-4,4.1-5.4l1.3-1.6
		c0.1-0.2,0.3-0.4,0.5-0.6c-0.1,0.2-0.3,0.4-0.4,0.6l-1.2,1.6c-1.1,1.4-2.5,3.3-4.1,5.5l-0.2,0.3l-0.1,0.1h-0.1
		c-2.4-0.9-4.6-1.7-6.1-2.3L195.8,178.1c-0.3,0-0.5-0.1-0.7-0.2C195.3,177.9,195.6,178,195.8,178.1z"/>
	<g class="st12">
		<path class="st8" d="M195.8,178.1l1.9,0.6c1.6,0.5,3.8,1.3,6.2,2.2h-0.2l0.2-0.3c1.6-2.1,3.1-4,4.1-5.4l1.3-1.6
			c0.1-0.2,0.3-0.4,0.5-0.6c-0.1,0.2-0.3,0.4-0.4,0.6l-1.2,1.6c-1.1,1.4-2.5,3.3-4.1,5.5l-0.2,0.3l-0.1,0.1h-0.1
			c-2.4-0.9-4.6-1.7-6.1-2.3L195.8,178.1c-0.3,0-0.5-0.1-0.7-0.2C195.3,177.9,195.6,178,195.8,178.1z"/>
	</g>
	<path class="st8" d="M209.3,180.3c1.2,0.5,2.4,1.2,3.6,1.9c-1.3-0.5-2.5-1-3.7-1.6c-1.2-0.6-2.4-1.2-3.6-1.9
		C206.8,179.1,208.1,179.6,209.3,180.3z"/>
	<g class="st12">
		<path class="st8" d="M209.3,180.3c1.2,0.5,2.4,1.2,3.6,1.9c-1.3-0.5-2.5-1-3.7-1.6c-1.2-0.6-2.4-1.2-3.6-1.9
			C206.8,179.1,208.1,179.6,209.3,180.3z"/>
	</g>
	<path class="st8" d="M197.8,187.1c0.9-2.4,1.9-4.8,3.1-7.1c-0.4,1.2-0.9,2.4-1.4,3.6C199,184.8,198.5,186,197.8,187.1L197.8,187.1z
		"/>
	<g class="st12">
		<path class="st8" d="M197.8,187.1c0.9-2.4,1.9-4.8,3.1-7.1c-0.4,1.2-0.9,2.4-1.4,3.6C199,184.8,198.5,186,197.8,187.1L197.8,187.1
			z"/>
	</g>
	<path class="st7" d="M328.5,37.7c11.2-2.8,22.5,3.9,25.4,15.1c2.8,11.2-3.9,22.5-15.1,25.4c-11.2,2.8-22.5-3.9-25.4-15.1
		C310.6,51.9,317.3,40.5,328.5,37.7z"/>
	<path class="st3" d="M332.6,61.7c0.5,1.2,0.9,2.4,1.4,3.6l-0.9-0.4c6.8-2.5,12-4.1,12.1-3.8s-4.8,2.5-11.6,5.1l-0.6,0.2l-0.2-0.6
		c-0.4-1.2-0.9-2.3-1.4-3.6c-3.3-8.5-5.7-15.5-5.3-15.6C326.3,46.5,329.3,53.2,332.6,61.7z"/>
</g>
<g id="Plant">
	<path class="st8" d="M60.9,364.2c0.5,1.7,0.3,3.6-0.5,5.2c-0.9,1.6-2.7,2.4-4.5,2c-1.7-0.5-2.7-2.4-4.1-3.4
		c-2.5-1.9-6.1-1.3-9.2-1.3c-1.3,0.1-2.6-0.2-3.7-1c-1.7-1.4-1.4-4.3,0.1-5.9s3.8-2.3,5.9-2.6c4.1-0.8,8.3-0.3,12,1.5
		C58.9,359.7,60.5,361.8,60.9,364.2z"/>
	<g class="st12">
		<path class="st3" d="M60.9,364.2c0.5,1.7,0.3,3.6-0.5,5.2c-0.9,1.6-2.7,2.4-4.5,2c-1.7-0.5-2.7-2.4-4.1-3.4
			c-2.5-1.9-6.1-1.3-9.2-1.3c-1.3,0.1-2.6-0.2-3.7-1c-1.7-1.4-1.4-4.3,0.1-5.9s3.8-2.3,5.9-2.6c4.1-0.8,8.3-0.3,12,1.5
			C58.9,359.7,60.5,361.8,60.9,364.2z"/>
	</g>
	<path class="st8" d="M65.1,342.4c1.8-2.6,2.1-5.8,2.1-8.9c0-6.7-1.6-13.3-4.4-19.3c-1-2-2.3-4.2-4.5-4.8c-1.9-0.4-3.9,0.3-5.2,1.7
		c-1.3,1.5-2.1,3.2-2.4,5.1c-1.3,6.3,0.5,12.7,2.2,18.9c0.8,2.7,1.6,5.5,3.6,7.5S62.9,345.6,65.1,342.4"/>
	<path class="st8" d="M70.9,346.6c1.8,2.4,5.3,2.5,8.7,1.2s6-4.1,8.2-7c2.8-3.6,5.3-7.4,7.4-11.3c1.2-2.3,2.4-5,1.2-7.3
		c-0.9-1.5-2.5-2.5-4.3-2.6c-1.7-0.1-3.5,0.2-5.1,0.9c-4.2,1.5-8,3.7-11.3,6.6c-2.9,2.4-5.1,5.6-6.3,9.2c-1.1,3.6-0.6,7.8,1.8,10.7"
		/>
	<g class="st11">
		<path d="M70.9,346.6c1.8,2.4,5.3,2.5,8.7,1.2s6-4.1,8.2-7c2.8-3.6,5.3-7.4,7.4-11.3c1.2-2.3,2.4-5,1.2-7.3
			c-0.9-1.5-2.5-2.5-4.3-2.6c-1.7-0.1-3.5,0.2-5.1,0.9c-4.2,1.5-8,3.7-11.3,6.6c-2.9,2.4-5.1,5.6-6.3,9.2c-1.1,3.6-0.6,7.8,1.8,10.7
			"/>
	</g>
	<path class="st7" d="M65.3,389.1c0-1-0.1-2.3-0.2-4c-0.1-2-0.4-3.9-0.8-5.9c-0.5-2.4-1.2-4.7-2.1-7c-0.9-2.3-2.1-4.4-3.6-6.3
		c-1.2-1.6-2.8-2.8-4.7-3.7c-1.2-0.6-2.5-0.9-3.9-1c-0.5-0.1-1-0.1-1.5,0c0.5,0.1,1,0.2,1.4,0.2c1.3,0.2,2.5,0.6,3.7,1.2
		c1.7,0.9,3.2,2.1,4.4,3.7c1.5,1.9,2.6,4,3.5,6.2c0.9,2.2,1.6,4.5,2.1,6.9c0.4,1.9,0.7,3.9,0.9,5.8c0.2,1.6,0.3,2.9,0.4,4
		c0,0.5,0.1,1,0.2,1.5C65.3,390.1,65.3,389.6,65.3,389.1z"/>
	<path class="st7" d="M65.1,386.8c0-0.5,0.1-1.1,0.1-1.9c0.1-1.7,0.1-4.1,0.1-7.1c0-6-0.5-14.2-1.5-23.3c-0.8-7.7-2-15.4-3.7-23
		c-0.3-1.5-0.6-2.8-0.9-3.9s-0.5-2.1-0.8-2.9l-0.6-1.9c-0.1-0.2-0.1-0.4-0.2-0.6c0,0.2,0.1,0.5,0.1,0.7c0.1,0.5,0.2,1,0.5,1.9
		s0.4,1.9,0.7,3s0.6,2.5,0.8,3.9c1.2,5.8,2.5,13.9,3.5,23c1,9.1,1.5,17.3,1.7,23.3c0.1,3,0.1,5.4,0.1,7.1L65.1,386.8
		c-0.1,0.2-0.1,0.5-0.1,0.7C65.1,387.3,65.1,387,65.1,386.8z"/>
	<path class="st7" d="M65.2,369.6c0.1-1.3,0.4-3.1,0.8-5.4s1-4.9,1.9-7.9c0.9-3.2,2-6.3,3.3-9.3c2.3-5.5,5.5-10.7,9.5-15.1
		c1.7-1.8,3.6-3.4,5.5-5c-0.6,0.3-1.2,0.7-1.7,1.1l-0.9,0.6c-0.3,0.2-0.6,0.5-1,0.8c-0.8,0.7-1.6,1.4-2.3,2.1
		c-4.1,4.4-7.4,9.6-9.7,15.2c-2.4,5.5-4.1,11.4-5.1,17.3c-0.3,1.8-0.5,3.6-0.6,5.4c-0.1,0.7-0.1,1.3,0,2
		C65.1,370.9,65.2,370.3,65.2,369.6z"/>
</g>
<g id="Device">
	<polygon class="st13" points="217.1,237.7 177.4,237.5 160.9,193.4 158.6,193.4 175.2,239.8 217.1,239.8 	"/>
</g>
<g id="Desk">
	<polygon class="st7" points="231.5,244.5 229.8,390.7 234,390.7 235.6,245.6 	"/>
	<path class="st7" d="M141.3,244.2L138.1,391h4c0,0,4.4-144.1,3.8-146.8H141.3z"/>
	<polygon class="st7" points="97,247.1 107.8,247.1 100.8,390.5 105,390.5 112,247.1 256.1,247.1 265.7,390.5 269.9,390.2 
		260.3,247.1 275,247.1 275,239.8 97,239.8 	"/>
</g>
<g id="Character">
	<path class="st8" d="M184.2,390.6c3.8,1.1,27.1,0,32.7-0.4l1.3-0.1L218,374l-20.6,0.2v11C197.4,385.2,180,389.4,184.2,390.6z"/>
	<path class="st14" d="M218.2,389.8l-0.1-5.8c-1.7-0.1-3.4,0.5-4.8,1.5c-1.4,1.1-2.3,2.7-2.6,4.4L218.2,389.8z"/>
	<path class="st14" d="M190.8,390.2l27.4-0.5v0.5c-10.4,1-33.9,1.3-34.7,0.3s5.3-2.8,5.3-2.8C190.1,387.6,190.8,390.2,190.8,390.2z"
		/>
	<path class="st7" d="M218.2,389.6h-1l-3.8,0.1c-3.2,0.1-7.5,0.3-12.4,0.3s-9.2,0-12.4,0H185h-1c-0.1,0-0.2,0-0.4,0h0.4l1,0l3.8,0.1
		c3.2,0.1,7.5,0.1,12.4,0.1c4.8-0.1,9.2-0.2,12.4-0.4l3.7-0.2L218.2,389.6l0.4,0L218.2,389.6z"/>
	<path class="st7" d="M190.8,390.5c0.1-1.4-0.7-2.7-2-3.2c0.5,0.4,0.9,0.9,1.3,1.4C190.4,389.3,190.6,389.9,190.8,390.5L190.8,390.5
		z"/>
	<path class="st7" d="M196.4,386.4c-0.3-0.5-0.6-0.8-0.7-0.8s0.1,0.5,0.5,0.9c0.3,0.5,0.6,0.8,0.7,0.8
		C196.8,387,196.6,386.7,196.4,386.4z"/>
	<path class="st7" d="M197.9,385.8c-0.4-0.3-0.7-0.5-0.7-0.5s0.2,0.3,0.6,0.7s0.7,0.5,0.7,0.5C198.5,386.4,198.3,386.1,197.9,385.8z
		"/>
	<path class="st7" d="M198.4,384.4c-0.4,0-0.7,0-1.1,0.1c0.3,0.1,0.7,0.1,1.1,0.1c0.4,0,0.7,0,1.1-0.1
		C199.2,384.4,198.8,384.4,198.4,384.4z"/>
	<path class="st7" d="M197.4,383.3c0.8,0.3,1.7,0.2,2.4-0.2C199.1,383.2,198.3,383.3,197.4,383.3z"/>
	<path class="st7" d="M194.8,385.4c-0.5-0.1-0.9-0.2-1.4-0.3c-0.3-0.1-0.5-0.2-0.8-0.3c-0.2-0.1-0.3-0.4-0.1-0.5
		c0.5-0.3,1.1-0.3,1.6-0.1c0.4,0.1,0.8,0.4,1.1,0.7c0.3,0.3,0.5,0.7,0.6,1.1c0,0,0-0.1,0-0.4c-0.1-0.3-0.2-0.6-0.5-0.9
		c-0.7-0.9-2-1.2-3-0.7c-0.2,0.1-0.2,0.3-0.2,0.5c0.1,0.2,0.2,0.3,0.3,0.4c0.3,0.1,0.5,0.3,0.8,0.3c0.5,0.1,0.9,0.2,1.4,0.3
		c0.4,0.1,0.9,0.1,1.3,0C196.1,385.5,195.6,385.5,194.8,385.4z"/>
	<path class="st7" d="M195.8,384.7c0.1-0.3,0.2-0.6,0.4-0.9c0.2-0.3,0.6-0.6,0.9-0.6s0.2,0.6,0,0.8c-0.2,0.3-0.3,0.6-0.5,0.8
		c-0.4,0.4-0.6,0.7-0.6,0.7c0.3-0.1,0.6-0.3,0.8-0.5c0.2-0.2,0.4-0.5,0.6-0.8c0.1-0.2,0.2-0.4,0.2-0.6c0.1-0.3-0.1-0.6-0.4-0.6
		c-0.5,0-0.9,0.3-1.1,0.7c-0.2,0.3-0.3,0.6-0.4,1c-0.1,0.3,0,0.6,0.2,0.9C195.8,385.3,195.8,385,195.8,384.7z"/>
	<path class="st7" d="M217.7,383.9c-0.4,0-0.8,0-1.1,0c-2.6,0.2-4.8,2-5.5,4.5c-0.1,0.4-0.2,0.7-0.2,1.1c0,0.3,0,0.4,0,0.4
		s0.1-0.6,0.4-1.5c0.4-1.2,1.1-2.2,2-3c1-0.8,2.1-1.2,3.3-1.4c0.9-0.1,1.5-0.1,1.5-0.1C217.9,384,217.8,383.9,217.7,383.9z"/>
	<path class="st7" d="M215.8,379.7c0,1.4,0.1,2.8,0.2,4.2c0.1-2.8,0-5.6-0.2-8.5C215.7,376.9,215.7,378.3,215.8,379.7z"/>
	<path class="st7" d="M205.2,388.2c-1.6,0-3-0.1-3,0c1,0.2,2,0.3,3,0.2c1,0,2-0.1,3-0.3C208.2,388,206.8,388.2,205.2,388.2z"/>
	<path class="st7" d="M211.7,388.5c-0.2,0.4-0.1,0.7-0.1,0.7s0.1-0.3,0.3-0.6s0.2-0.6,0.2-0.6C212.2,388,211.9,388.1,211.7,388.5z"
		/>
	<path class="st7" d="M213.2,386.4c-0.2,0.2-0.3,0.4-0.3,0.5s0.3-0.1,0.5-0.3s0.3-0.4,0.3-0.5C213.7,386,213.4,386.2,213.2,386.4z"
		/>
	<path class="st7" d="M215.2,385.2c-0.4,0.1-0.5,0.4-0.5,0.5s0.3-0.1,0.6-0.2s0.6-0.1,0.6-0.2C215.9,385.1,215.6,385,215.2,385.2z"
		/>
	<path class="st7" d="M217.1,384.8c-0.2,0.1-0.3,0.2-0.3,0.2s0.2,0.1,0.4,0s0.3-0.2,0.3-0.2C217.4,384.7,217.2,384.7,217.1,384.8z"
		/>
	<path class="st8" d="M142.7,373.6c3,2.6,24.7,11.1,30,13.1l1.2,0.4l6.4-14.8l-18.9-8.3l-4.5,10.1
		C156.9,374.1,139.3,370.7,142.7,373.6z"/>
	<path class="st14" d="M173.9,386.8l2.3-5.3c-1.5-0.8-3.3-1-5-0.6c-1.7,0.4-3.2,1.5-4.2,3L173.9,386.8z"/>
	<path class="st14" d="M148.8,375.9l25.2,10.8l-0.1,0.4c-9.9-3.3-31.4-12.8-31.7-14s6-0.4,6-0.4
		C149.2,373.3,148.8,375.9,148.8,375.9z"/>
	<path class="st7" d="M173.9,386.7l-0.9-0.4l-3.5-1.4c-2.9-1.2-7-2.9-11.4-4.8s-8.4-3.8-11.3-5.1l-3.4-1.6l-0.9-0.4l-0.3-0.1
		c0.1,0.1,0.2,0.1,0.3,0.2l0.9,0.5l3.4,1.6c2.8,1.4,6.8,3.2,11.2,5.1s8.5,3.6,11.4,4.8l3.5,1.4L173.9,386.7l0.4,0.2L173.9,386.7z"/>
	<path class="st7" d="M149,374.2c-0.1-0.7-0.3-1.3-0.8-1.8c0.3,0.6,0.5,1.2,0.6,1.8c0.1,0.6,0,1.3-0.1,1.9
		C149,375.6,149.1,374.9,149,374.2z"/>
	<path class="st7" d="M155.4,374.8c-0.1-0.6-0.2-1-0.3-1s-0.1,0.4,0,1s0.2,1,0.3,1C155.5,375.5,155.5,375.1,155.4,374.8z"/>
	<path class="st7" d="M157.1,374.8c-0.2-0.4-0.4-0.8-0.5-0.7s0,0.4,0.2,0.8s0.4,0.7,0.5,0.7C157.4,375.6,157.3,375.3,157.1,374.8z"
		/>
	<path class="st7" d="M158.1,373.8c-0.5-0.2-0.9-0.4-1-0.3s0.4,0.3,0.9,0.5c0.3,0.2,0.6,0.3,1,0.3
		C159.1,374.2,158.6,374,158.1,373.8z"/>
	<path class="st7" d="M158.8,372.8c-0.4-0.2-0.8-0.3-1.1-0.4c0.3,0.3,0.6,0.5,1.1,0.6c0.4,0.2,0.8,0.2,1.2,0.2
		C159.6,373,159.2,372.9,158.8,372.8z"/>
	<path class="st7" d="M154.4,373.2c-0.4-0.3-0.8-0.6-1.1-0.9c-0.2-0.2-0.4-0.4-0.5-0.6c-0.2-0.2-0.1-0.5,0.1-0.5
		c0.5,0,1.1,0.2,1.5,0.5c0.4,0.3,0.6,0.7,0.7,1.1c0.1,0.4,0.1,0.9,0.1,1.3c0.1-0.1,0.1-0.2,0.1-0.4c0-0.2,0-0.3,0-0.5
		c-0.1-1.3-1.2-2.4-2.5-2.3c-0.2,0-0.4,0.2-0.4,0.4c0,0.2,0,0.4,0.1,0.5c0.2,0.2,0.4,0.4,0.6,0.6c0.4,0.3,0.7,0.6,1.2,0.9
		c0.4,0.2,0.8,0.4,1.2,0.5C155.5,373.8,155.1,373.6,154.4,373.2z"/>
	<path class="st7" d="M155.6,373c0.2-0.3,0.4-0.5,0.7-0.6c0.3-0.2,0.7-0.3,1-0.2c0.3,0.2,0,0.6-0.3,0.8c-0.3,0.2-0.5,0.4-0.8,0.5
		c-0.5,0.2-0.8,0.4-0.8,0.4c0.3,0,0.6,0,0.9-0.2c0.3-0.1,0.6-0.3,0.9-0.5c0.2-0.1,0.3-0.3,0.4-0.5c0.2-0.2,0.1-0.6-0.1-0.7
		c-0.4-0.2-0.9-0.1-1.3,0.2c-0.3,0.2-0.5,0.4-0.7,0.8c-0.2,0.3-0.3,0.6-0.2,0.9C155.3,373.5,155.4,373.2,155.6,373z"/>
	<path class="st7" d="M175.8,381.2c-0.3-0.2-0.7-0.4-1-0.5c-1.2-0.4-2.5-0.5-3.7-0.1c-1.2,0.3-2.3,1-3.1,2c-0.2,0.3-0.5,0.6-0.6,0.9
		c-0.1,0.1-0.1,0.2-0.2,0.4c0,0,0.3-0.5,1-1.2c1.7-1.8,4.3-2.5,6.7-1.8c0.9,0.3,1.4,0.6,1.4,0.6
		C176.2,381.5,176.1,381.4,175.8,381.2z"/>
	<path class="st7" d="M175.9,376.7c-0.6,1.3-1.1,2.6-1.5,4c0.7-1.2,1.3-2.5,1.8-3.9c0.6-1.3,1.1-2.6,1.5-4
		C177,374,176.4,375.3,175.9,376.7z"/>
	<path class="st7" d="M162.7,379.9c-1.5-0.7-2.8-1.3-2.8-1.2c0.8,0.6,1.7,1.1,2.7,1.4c0.9,0.4,1.9,0.7,2.9,0.9
		C165.5,381,164.2,380.6,162.7,379.9z"/>
	<path class="st7" d="M168.6,383c-0.3,0.3-0.4,0.6-0.3,0.6s0.2-0.2,0.5-0.4s0.5-0.4,0.5-0.5C169.2,382.6,168.9,382.7,168.6,383z"/>
	<path class="st7" d="M170.8,381.7c-0.3,0.1-0.5,0.3-0.5,0.3s0.3,0,0.6-0.1s0.5-0.2,0.5-0.3C171.3,381.5,171.1,381.6,170.8,381.7z"
		/>
	<path class="st7" d="M173.1,381.4c-0.4,0-0.7,0.2-0.6,0.2s0.3,0,0.6,0s0.6,0.1,0.6,0.1C173.7,381.6,173.5,381.4,173.1,381.4z"/>
	<path class="st7" d="M174.9,381.8c-0.2,0-0.3,0-0.3,0.1s0.1,0.1,0.3,0.1s0.3,0,0.3-0.1S175.1,381.8,174.9,381.8z"/>
	<path class="st8" d="M303,298.6l8.7-105.3c0.3-3.3,2.9-5.9,6.2-6.2l35.9-3c0.3,0,0.7,0,1,0c2.6,0.3,4.4,2.7,4,5.3l-14.9,111.2
		L303,298.6z"/>
	<g class="st12">
		<path d="M303,298.6l8.7-105.3c0.3-3.3,2.9-5.9,6.2-6.2l35.9-3c0.3,0,0.7,0,1,0c2.6,0.3,4.4,2.7,4,5.3l-14.9,111.2L303,298.6z"/>
	</g>
	<path class="st7" d="M280.1,127.9c0.5-3.6,0.9-7.6-1.2-10.4c-0.5-0.7-1.2-1.3-1.7-2c-0.6-0.7-0.8-1.6-0.7-2.5c0,0,0,0,0,0
		c0.2-0.9,1.1-1.5,1.9-1.3c-0.7-0.5-1.3-1-1.8-1.7c-0.5-0.7-0.6-1.6-0.2-2.4c0.4-0.6,1-1,1.7-1.2c1.7-0.6,3.5-1,5.4-1.1
		c0,0-0.1,0-0.1,0c-0.9,0-1.5-0.8-1.5-1.6c0.1-0.9,0.6-1.6,1.4-2c0.8-0.4,1.6-0.5,2.5-0.6c4.8-0.5,9.6,0,14.2,1.6
		c4.6,1.7,8.3,5.1,10.3,9.5c1.7,3.9,1.5,8.3,1,12.5s-1.7,8.3-2,12.6"/>
	<path class="st15" d="M309.3,116.2l-1.3-0.9c-8.7-5.9-20-6.6-29.4-1.9l0,0c0,0-0.3,19.3,0.4,27.7c0.6,8.4,9.1,9.1,9.1,9.1
		s0.4,9.1,0.7,11.4l20.2,0.4L309.3,116.2z"/>
	<path class="st7" d="M281.4,128c-0.5,0.5-1.2,0.5-1.7,0c-0.5-0.5-0.5-1.2,0-1.7c0.5-0.5,1.2-0.5,1.7,0
		C281.9,126.7,281.9,127.5,281.4,128C281.4,128,281.4,128,281.4,128z"/>
	<path class="st7" d="M279.7,125.3c1-0.8,2.3-0.9,3.4-0.2c0.4,0.3,0.6,0.4,0.5,0.6s-1-0.4-2.1-0.3c-1.1,0.1-1.9,0.8-2.1,0.6
		C279.2,125.9,279.3,125.6,279.7,125.3z"/>
	<path class="st7" d="M292.6,126.1c0.5-0.4,1.3-0.3,1.7,0.3c0,0,0,0,0,0c0.4,0.6,0.3,1.3-0.3,1.7c-0.6,0.4-1.3,0.3-1.7-0.3
		C291.9,127.3,292.1,126.5,292.6,126.1C292.6,126.1,292.6,126.1,292.6,126.1z"/>
	<path class="st7" d="M292.2,125.5c0.9-0.8,2.3-0.9,3.4-0.2c0.4,0.2,0.6,0.4,0.5,0.6c-0.1,0.1-1-0.4-2.1-0.3
		c-1.2,0.1-1.9,0.8-2.1,0.6C291.8,126.1,291.9,125.8,292.2,125.5z"/>
	<path class="st7" d="M285.9,136.1c-0.2,0-0.3,0-0.5,0c-0.2-0.1-0.4-0.2-0.5-0.4c-0.1-0.4-0.1-0.9,0.1-1.3c0.2-0.8,0.5-1.6,0.7-2.4
		c1.1-3.4,2-6.1,2.2-6.1c0.2,0.1-0.5,2.9-1.6,6.3c-0.3,0.8-0.5,1.6-0.8,2.4c-0.1,0.3-0.2,0.6-0.2,0.9c0,0.2,0.3,0.2,0.6,0.2
		c0.6,0,1.3,0.1,1.9,0.3C287.2,136.1,286.6,136.2,285.9,136.1z"/>
	<path class="st3" d="M289.9,140c-1.4,0.6-2.9,0.2-3.8-1c2.4,0,6.7-2.8,5.6-2C291.6,137,292.4,138.9,289.9,140z"/>
	<path class="st16" d="M288.1,152.3c8.4,0.2,10.6-5.9,10.6-5.9c-3.1,2.3-6.9,3.6-10.7,3.8L288.1,152.3z"/>
	<path class="st7" d="M311.6,117.6c0-3.3-0.7-7.1-11.7-10.9c-5.6-1.9-15.8-1.1-19.9,1.2s-2.1,4.5-2.1,4.5s-1.1,4.9,14.8,2.2
		c4.8-0.8,6.3-3.2,9.7-2c3.2,1.1,2.7,6.1,2.7,6.1s-0.3,13.2-0.1,13.3s4.1,1.3,4.1,1.3l0.4-10.9C309.6,122.5,311.6,122.3,311.6,117.6
		z"/>
	<path class="st15" d="M305.8,133.9c0,0.2,7,3.1,7.6-4c0.6-7.1-5.5-6.3-5.6-6.3C307.7,123.6,305.8,133.7,305.8,133.9z"/>
	<path class="st16" d="M308.5,131.9c0.3,0.3,0.7,0.4,1.1,0.3c1-0.2,1.8-1.5,2-2.9c0.1-0.7,0-1.4-0.3-2c-0.2-0.6-0.6-1-1.2-1.2
		c-0.2,0-0.5,0-0.7,0.1c-0.2,0.1-0.3,0.3-0.3,0.4c-0.1,0.3,0,0.4,0.1,0.4c0,0,0-0.2,0.1-0.4c0.2-0.3,0.5-0.4,0.8-0.3
		c0.4,0.2,0.8,0.5,0.9,1c0.2,0.6,0.3,1.2,0.2,1.8c0,1.1-0.6,2.1-1.6,2.6c-0.3,0.1-0.6,0.1-0.9-0.1c-0.2-0.1-0.3-0.2-0.3-0.2
		C308.2,131.6,308.2,131.7,308.5,131.9z"/>
	<path class="st15" d="M227.6,232.5l-3.8-1l-16,6.1c0,0-3.2,0-4.8,0c-0.5,0,9.8-16.1,13.2-17.7c2-0.9,12-0.4,12-0.4L227.6,232.5z"/>
	<path class="st7" d="M200.3,307l-18.1,74.9c0,0-26.9-13.4-26.8-12.9s30-103.1,30-103.1L200.3,307z"/>
	<polygon class="st13" points="184.2,378.8 155.6,364.9 154.4,368.7 182.8,382.5 	"/>
	<path class="st13" d="M186.6,342.8c0.2-0.8,0.6-1.5,0.7-1.4s0.1,0.8-0.2,1.6s-0.6,1.4-0.7,1.4C186.3,344.4,186.4,343.7,186.6,342.8
		z"/>
	<path class="st13" d="M184.8,348.9c0.3-0.8,0.6-1.5,0.7-1.4s0,0.8-0.2,1.6s-0.6,1.4-0.7,1.4C184.5,350.4,184.6,349.7,184.8,348.9z"
		/>
	<path class="st13" d="M182.9,354.9c0.3-0.8,0.6-1.5,0.8-1.4s0,0.8-0.2,1.6s-0.6,1.5-0.8,1.4C182.5,356.5,182.6,355.7,182.9,354.9z"
		/>
	<path class="st13" d="M180.9,360.9c0.3-0.8,0.6-1.5,0.8-1.4s0,0.8-0.2,1.6s-0.6,1.5-0.8,1.4C180.5,362.5,180.6,361.7,180.9,360.9z"
		/>
	<path class="st13" d="M178.8,366.9c0.3-0.8,0.6-1.4,0.8-1.4s0,0.8-0.3,1.6s-0.6,1.4-0.8,1.4C178.4,368.4,178.5,367.8,178.8,366.9z"
		/>
	<path class="st13" d="M176.7,372.8c0.3-0.8,0.7-1.4,0.8-1.4s0,0.8-0.3,1.6s-0.7,1.4-0.8,1.4C176.2,374.4,176.4,373.7,176.7,372.8z"
		/>
	<path class="st13" d="M178.4,375.7l1.2-3.1c1-2.6,2.3-6.4,3.7-10.5l3.5-10.5c0.5-1.4,0.8-2.4,1.1-3.2c0.1-0.4,0.3-0.8,0.5-1.1
		c0,0.4-0.1,0.8-0.3,1.2c-0.3,0.9-0.6,2-1,3.2c-0.8,2.7-2,6.5-3.4,10.6s-2.8,7.8-3.9,10.4c-0.6,1.3-1,2.4-1.4,3.1
		c-0.2,0.4-0.4,0.7-0.6,1.1C178.1,376.5,178.2,376.1,178.4,375.7z"/>
	<path class="st7" d="M285.5,250.2c0,0-74.1,0.7-86.1,2.9c-19.1,3.6-15.6,31.4-15.6,31.4l6.9,96.1h32.8l-6.6-90.3
		c0,0,55.9,0.4,83.3-0.5s24.3-36.6,24.5-31.1L285.5,250.2z"/>
	<polygon class="st13" points="224.4,375.5 189.8,375.4 189.8,380.8 224.4,380.8 	"/>
	<path class="st13" d="M278.1,285.6h-1l-4-0.1l-14.9-0.4l-50.1-1.5l0.3-0.3c0.5,3.7,0.8,7.5,1.2,11.5c0.4,5.6,0.8,11.2,1.3,16.5
		s1,10.4,1.5,15.3c1,9.8,1.9,18.6,2.6,25.9s1.3,13.3,1.7,17.5c0.2,2,0.3,3.6,0.4,4.8c0,0.5,0.1,0.9,0.1,1.2c0,0.1,0,0.3,0,0.4
		c0-0.1-0.1-0.3-0.1-0.4c0-0.3-0.1-0.7-0.1-1.2c-0.1-1.1-0.3-2.8-0.5-4.8c-0.5-4.1-1.1-10.1-1.9-17.5s-1.7-16.2-2.7-25.9
		c-0.5-4.9-1.1-10-1.5-15.3s-0.8-10.8-1.3-16.5c-0.3-3.9-0.7-7.8-1.1-11.5V283h0.3l50.1,1.7l14.9,0.6l4,0.2L278.1,285.6
		c0.2-0.1,0.3-0.1,0.4-0.1C278.4,285.5,278.2,285.6,278.1,285.6z"/>
	<path class="st13" d="M276.9,281.3c0.9,0,1.6,0.2,1.6,0.3s-0.7,0.2-1.6,0.2s-1.6-0.2-1.6-0.3S276.1,281.3,276.9,281.3z"/>
	<path class="st13" d="M270.6,281.2c0.9,0,1.6,0.2,1.6,0.3c0,0.2-0.7,0.2-1.6,0.2s-1.6-0.2-1.6-0.3S269.7,281.2,270.6,281.2z"/>
	<path class="st13" d="M264.3,281.1c0.9,0,1.6,0.2,1.6,0.3c0,0.1-0.7,0.3-1.6,0.2s-1.6-0.2-1.6-0.3
		C262.7,281.1,263.4,281,264.3,281.1z"/>
	<path class="st13" d="M257.9,280.9c0.9,0,1.6,0.2,1.6,0.3c0,0.1-0.7,0.3-1.6,0.2s-1.6-0.2-1.6-0.3
		C256.3,281,257.1,280.9,257.9,280.9z"/>
	<path class="st13" d="M251.6,280.8c0.9,0,1.6,0.2,1.6,0.3s-0.7,0.3-1.6,0.2s-1.6-0.2-1.6-0.3C250,280.8,250.7,280.7,251.6,280.8z"
		/>
	<path class="st13" d="M245.3,280.6c0.9,0,1.6,0.2,1.6,0.3s-0.7,0.3-1.6,0.2s-1.6-0.2-1.6-0.3C243.7,280.7,244.4,280.6,245.3,280.6z
		"/>
	<path class="st13" d="M238.9,280.5c0.9,0,1.6,0.2,1.6,0.3s-0.7,0.3-1.6,0.2s-1.6-0.2-1.6-0.3C237.4,280.5,238.1,280.4,238.9,280.5z
		"/>
	<path class="st13" d="M232.6,280.3c0.9,0,1.6,0.1,1.6,0.3s-0.7,0.3-1.6,0.2s-1.6-0.2-1.6-0.3C231,280.4,231.7,280.3,232.6,280.3z"
		/>
	<path class="st13" d="M226.3,280.2c0.9,0,1.6,0.2,1.6,0.3s-0.7,0.2-1.6,0.2s-1.6-0.2-1.6-0.3C224.7,280.2,225.4,280.1,226.3,280.2z
		"/>
	<path class="st13" d="M220,280c0.9,0,1.6,0.2,1.6,0.3s-0.7,0.2-1.6,0.2s-1.6-0.2-1.6-0.3S219.1,280,220,280z"/>
	<path class="st13" d="M213.6,279.9c0.9,0,1.6,0.2,1.6,0.3s-0.7,0.2-1.6,0.2s-1.6-0.2-1.6-0.3C212,280,212.7,279.9,213.6,279.9z"/>
	<path class="st13" d="M207.3,279.7c0.9,0,1.6,0.2,1.6,0.3s-0.7,0.3-1.6,0.2s-1.6-0.2-1.6-0.3C205.7,279.8,206.4,279.7,207.3,279.7z
		"/>
	<path class="st13" d="M205.3,284.1c-0.1-0.9,0-1.6,0.1-1.6s0.3,0.7,0.4,1.5s0,1.6-0.1,1.6C205.6,285.7,205.4,285,205.3,284.1z"/>
	<path class="st13" d="M205.9,290.4c-0.1-0.9,0-1.6,0.1-1.6s0.3,0.7,0.4,1.5s0,1.6-0.1,1.6C206.2,292,206,291.3,205.9,290.4z"/>
	<path class="st13" d="M206.5,296.8c-0.1-0.9,0-1.6,0.1-1.6s0.3,0.7,0.4,1.5s0,1.6-0.1,1.6C206.8,298.3,206.6,297.6,206.5,296.8z"/>
	<path class="st13" d="M207.1,303c-0.1-0.9,0-1.6,0.1-1.6s0.3,0.7,0.4,1.5s0,1.6-0.1,1.6C207.4,304.6,207.2,303.9,207.1,303z"/>
	<path class="st13" d="M207.8,309.4c-0.1-0.9,0-1.6,0.1-1.6s0.3,0.7,0.4,1.5s0,1.6-0.1,1.6C208,310.9,207.9,310.2,207.8,309.4z"/>
	<path class="st13" d="M208.4,315.7c-0.1-0.9,0-1.6,0.1-1.6s0.3,0.7,0.4,1.5s0,1.6-0.1,1.6C208.7,317.2,208.5,316.5,208.4,315.7z"/>
	<path class="st13" d="M209,322c-0.1-0.9,0-1.6,0.1-1.6s0.3,0.7,0.4,1.5s0,1.6-0.1,1.6C209.3,323.5,209.1,322.8,209,322z"/>
	<path class="st13" d="M209.6,328.2c-0.1-0.9,0-1.6,0.1-1.6s0.3,0.7,0.4,1.5s0,1.6-0.1,1.6C209.9,329.8,209.7,329.1,209.6,328.2z"/>
	<path class="st13" d="M210.2,334.6c-0.1-0.9,0-1.6,0.1-1.6s0.3,0.7,0.4,1.5s0,1.6-0.1,1.6C210.5,336.1,210.3,335.4,210.2,334.6z"/>
	<path class="st13" d="M210.9,340.9c-0.1-0.9,0-1.6,0.1-1.6s0.3,0.7,0.4,1.5s0,1.6-0.1,1.6C211.1,342.4,210.9,341.7,210.9,340.9z"/>
	<path class="st13" d="M211.5,347.2c-0.1-0.9,0-1.6,0.1-1.6s0.3,0.7,0.4,1.5s0,1.6-0.1,1.6C211.8,348.7,211.6,348,211.5,347.2z"/>
	<path class="st13" d="M212.1,353.5c-0.1-0.9,0-1.6,0.1-1.6s0.3,0.7,0.4,1.5s0,1.6-0.1,1.6C212.4,355,212.2,354.3,212.1,353.5z"/>
	<path class="st13" d="M212.7,359.8c-0.1-0.9,0-1.6,0.1-1.6s0.3,0.7,0.4,1.5s0,1.6-0.1,1.6C213,361.3,212.8,360.6,212.7,359.8z"/>
	<path class="st13" d="M213.3,366.1c-0.1-0.9,0-1.6,0.1-1.6s0.3,0.7,0.4,1.5s0,1.6-0.1,1.6C213.6,367.6,213.4,366.9,213.3,366.1z"/>
	<path class="st13" d="M214,372.4c-0.1-0.9,0-1.6,0.1-1.6s0.3,0.7,0.4,1.5s0,1.6-0.1,1.6C214.2,373.9,214.1,373.2,214,372.4z"/>
	<path class="st13" d="M214.4,377.2c0,0,0.1-0.1,0.3-0.1s0.3,0,0.3,0.1s-0.1,0.1-0.3,0.1C214.6,377.3,214.4,377.2,214.4,377.2z"/>
	<path class="st7" d="M217.3,290.4c-0.9-0.5-1.8-1.2-2.5-1.9c-0.8-0.7-1.6-1.4-2.1-2.4C214.4,287.2,216,288.7,217.3,290.4z"/>
	<path class="st7" d="M214.1,288.7c1.3,0.5,2.4,1.1,3.5,1.9c-1.3-0.3-2.6-0.8-3.8-1.4c-1.3-0.5-2.4-1.1-3.5-1.9
		C211.6,287.6,212.9,288,214.1,288.7z"/>
	<path class="st13" d="M277.1,215.6c-1.7,0.2-53.8-0.1-53.8-0.1l-1,20.1c0,0,34.9,3.9,56.1,4.3l-2.3,11.1l48.6,11.3
		c5.2-5.4,0.2-22.6,0.2-22.6c-4.3-36.6-0.3-56.4-8.3-73.4c-1.6-3.2-4.3-5.8-7.6-7.2l0.3-4.8l-22.3,2.7l-1.8,6.2l1.2,0.9
		C280.5,179.7,277.1,215.6,277.1,215.6"/>
	<path class="st1" d="M286,161c-0.2,0.5-0.3,1-0.5,1.6c0,0.4,0.2,0.7,0.6,0.9c0.6,0.3,1.1,0.3,1.1,0.4s-0.5,0.3-1.3,0
		c-0.2-0.1-0.4-0.2-0.6-0.4c-0.2-0.2-0.3-0.5-0.3-0.8c0.1-0.6,0.2-1.2,0.4-1.7c0.4-1.4,0.9-2.7,1.6-4
		C286.9,158.3,286.5,159.7,286,161z"/>
	<path class="st7" d="M301.8,183.3c11,0,20,0.1,20,0.3s-9,0.3-20,0.3s-20-0.1-20-0.3C281.8,183.5,290.8,183.3,301.8,183.3z"/>
	<path class="st7" d="M301.6,173.2c9.8,0,17.7,0.1,17.7,0.3s-7.9,0.3-17.7,0.3s-17.7-0.1-17.7-0.3S291.8,173.2,301.6,173.2z"/>
	<path class="st7" d="M301.4,164.3c8.1,0,14.6,0.1,14.6,0.3s-6.5,0.3-14.6,0.3s-14.7-0.1-14.7-0.3
		C286.8,164.5,293.3,164.3,301.4,164.3z"/>
	<path class="st7" d="M298.3,158.1c6.2,0,11.2,0.1,11.2,0.3c-3.7,0.3-7.5,0.4-11.2,0.3c-3.7,0.1-7.5,0-11.2-0.3
		C287.1,158.2,292.1,158.1,298.3,158.1z"/>
	<path class="st7" d="M301.5,193.1c11.7,0,21.1,0.1,21.1,0.3s-9.5,0.3-21.1,0.3s-21.1-0.1-21.1-0.3
		C280.3,193.2,289.8,193.1,301.5,193.1z"/>
	<path class="st7" d="M300.6,202.8c12.1,0,22,0.1,22,0.3s-9.9,0.3-22,0.3s-22-0.1-22-0.3S288.5,202.8,300.6,202.8z"/>
	<path class="st7" d="M300.1,211.8c12.5,0,22.6,0.1,22.6,0.3s-10.1,0.3-22.6,0.3c-12.4,0-22.5-0.1-22.5-0.3
		C277.5,212,287.6,211.8,300.1,211.8z"/>
	<path class="st7" d="M275.9,221.7c26.3,0,47.6,0.1,47.6,0.3s-21.3,0.3-47.6,0.3s-47.6-0.1-47.6-0.3S249.6,221.7,275.9,221.7z"/>
	<path class="st7" d="M275.9,229.6c26.5,0,47.9,0.1,47.9,0.3s-21.5,0.3-47.9,0.3S228,230,228,229.8
		C228,229.7,249.4,229.6,275.9,229.6z"/>
	<path class="st7" d="M302.1,239.3c12.7,0,22.9,0.1,22.9,0.3s-10.3,0.3-22.9,0.3s-22.9-0.1-22.9-0.3
		C279.2,239.4,289.4,239.3,302.1,239.3z"/>
	<path class="st7" d="M301.7,248.3c13.8,0,24.9,0.1,24.9,0.3s-11.1,0.3-24.9,0.3s-24.9-0.1-24.9-0.3S288,248.3,301.7,248.3z"/>
	<path class="st7" d="M319,211.9c0-21.6,0.1-39.1,0.3-39.1s0.3,17.5,0.3,39.1s-0.1,39.1-0.3,39.1C319.1,251,319,233.5,319,211.9z"/>
	<path class="st7" d="M306.9,202.2c0-26.4,0.1-47.8,0.3-47.8s0.3,21.4,0.3,47.8s-0.1,47.8-0.3,47.8
		C307.1,250,306.9,228.6,306.9,202.2z"/>
	<path class="st7" d="M293.7,202.6c0-25.4,0.1-46,0.3-46c0.1,0,0.3,20.6,0.3,46s-0.1,46-0.3,46C293.8,248.6,293.7,228,293.7,202.6z"
		/>
	<path class="st7" d="M282.5,214.8c0-20,0.1-36.1,0.3-36.1c0.2,0,0.3,16.2,0.3,36.1s-0.1,36.1-0.3,36.1S282.5,234.8,282.5,214.8z"/>
	<path class="st7" d="M271.3,219c0.1,2.2,0.2,5.2,0.3,8.5s0.1,6.3,0.1,8.5c0.1,1.2,0,2.3-0.1,3.5c-0.2-1.2-0.3-2.3-0.3-3.5
		c-0.1-2.2-0.2-5.2-0.3-8.5s-0.1-6.3-0.1-8.5c-0.1-1.2,0-2.4,0.1-3.5C271.2,216.7,271.3,217.9,271.3,219z"/>
	<path class="st7" d="M258.7,219.2c0.1,2,0.2,4.8,0.3,7.9c0.1,3.1,0.1,5.9,0.1,7.9c0.1,1.1,0,2.2-0.1,3.3c-0.2-1.1-0.3-2.2-0.3-3.3
		c-0.1-2-0.2-4.8-0.3-7.9s-0.1-5.9-0.1-7.9c-0.1-1.1,0-2.2,0.1-3.3C258.6,217.1,258.7,218.2,258.7,219.2z"/>
	<path class="st7" d="M246.2,218.9c0.1,2,0.1,4.7,0.3,7.7s0.1,5.7,0.1,7.7c0,1.1,0,2.1-0.1,3.2c-0.2-1.1-0.3-2.1-0.3-3.2
		c-0.1-2-0.2-4.7-0.3-7.7s-0.1-5.7-0.1-7.7c-0.1-1.1,0-2.1,0.1-3.2C246.1,216.8,246.2,217.9,246.2,218.9z"/>
	<path class="st7" d="M233.6,218.5c0.1,1.9,0.2,4.5,0.3,7.5s0.1,5.5,0.1,7.5c0.1,1,0,2.1-0.1,3.1c-0.2-1-0.3-2.1-0.3-3.1
		c-0.1-1.9-0.2-4.5-0.3-7.5s-0.1-5.5-0.1-7.5c-0.1-1,0-2.1,0.1-3.1C233.5,216.4,233.6,217.4,233.6,218.5z"/>
	<path class="st7" d="M279.2,217.4c-0.8-0.8-1.6-1.7-2.4-2.6c2.1,1.1,3.8,3,4.7,5.2C280.7,219.2,279.9,218.4,279.2,217.4z"/>
	<path class="st7" d="M277.9,217.5c-0.5-1.5-1.4-2.5-1.3-2.6c1.7,1.3,2.4,3.4,2,5.5C278.4,220.3,278.4,219,277.9,217.5z"/>
	<path class="st7" d="M228,225.8c0.2-3.2,0.6-6.4,1.1-9.6c0,3.2-0.2,6.4-0.6,9.6c-0.2,3.2-0.6,6.4-1.1,9.6
		C227.4,232.2,227.6,229,228,225.8z"/>
	<path class="st7" d="M227.5,220.7c0.1,0.4,0,0.8-0.2,1.1c-0.4,0.4-1,0.5-1.4,0.3c-0.5-0.2-0.8-0.7-0.8-1.2c0-0.4,0.3-0.8,0.7-1
		c0.6-0.4,1-0.1,1,0s-0.4,0-0.8,0.3c-0.2,0.2-0.3,0.4-0.4,0.7c0,0.3,0.2,0.6,0.5,0.7c0.3,0.1,0.6,0.1,0.8-0.1
		c0.2-0.2,0.3-0.5,0.2-0.7c0-0.5-0.3-0.7-0.3-0.8C226.8,219.9,227.3,220,227.5,220.7z"/>
	<path class="st7" d="M276.9,215.6l-0.7,0.1c-0.6,0.1-1.6,0.2-2.9,0.2c-2.5,0.1-6.2,0.2-10.9,0.2c-9.4,0-22.9-0.3-39-0.9l0.2-0.2
		c-0.3,6.2-0.7,13-1,20.2l-0.2-0.3c2.4,0.5,5.1,0.7,7.7,0.9l8.1,0.7l16.9,1.3l21.1,1.4l0,0c6-0.4,11.9-2.5,15.9-6.5
		c2-1.9,3.6-4.2,4.6-6.8c1-2.5,1.8-5,2.4-7.5c2.5-10,4.1-19.1,5.4-26.6c0.6-3.8,1.1-7.2,1.6-10.2c0.5-2.5,0.8-5.1,1-7.6
		c0.1-1.6-0.2-3.2-0.9-4.7c-0.3-0.5-0.6-0.9-0.9-1.4c0.4,0.4,0.7,0.8,1,1.3c0.7,1.5,1.1,3.1,1,4.7c-0.1,2.6-0.4,5.1-0.9,7.7
		c-0.4,3-0.9,6.4-1.5,10.2c-1.2,7.6-2.8,16.7-5.2,26.7c-0.6,2.6-1.4,5.1-2.4,7.6c-1.1,2.6-2.7,5-4.7,6.9c-4.2,4-10.1,6.2-16.2,6.6
		l0,0l-21.1-1.4c-5.8-0.4-11.4-0.8-16.9-1.3l-8.1-0.7c-2.7-0.3-5.2-0.5-7.8-1h-0.2v-0.2c0.3-7.2,0.7-13.9,1-20.2v-0.2h0.2
		c16.1,0.6,29.6,0.9,39,1c4.7,0,8.4,0,10.9-0.1c1.3,0,2.2-0.1,2.9-0.2L276.9,215.6l0.3-0.1C277.1,215.5,277,215.5,276.9,215.6z"/>
	<path class="st7" d="M277.5,213.9c0.3-1.1,0.6-2.6,1-4.4c0.9-3.8,1.9-8.8,3.2-14.4c1.3-5.7,2.5-10.8,3.5-14.4
		c0.5-1.8,0.9-3.3,1.2-4.3c0.1-0.5,0.3-1.1,0.5-1.6c0,0.5-0.2,1.1-0.3,1.6l-1,4.4c-0.9,3.7-2,8.8-3.3,14.4s-2.4,10.7-3.4,14.4
		c-0.5,1.8-0.9,3.3-1.2,4.3c-0.1,0.5-0.3,1.1-0.5,1.6C277.3,215,277.4,214.4,277.5,213.9z"/>
	<path class="st7" d="M287.3,158.5c0.2,0.7,0.4,1.7,0.6,2.9c0.1,0.6,0.2,1.4,0.5,2c0.1,0.3,0.3,0.6,0.6,0.7c0.4,0.1,0.7,0,1.1-0.1
		c1.6-0.3,3.4-0.8,5.3-1.3c3.7-1,7.1-2.1,9.6-2.7c1.2-0.3,2.2-0.6,2.9-0.7c0.4-0.1,0.7-0.2,1.1-0.2c-0.3,0.2-0.7,0.3-1,0.4l-2.9,0.9
		c-2.4,0.8-5.8,1.9-9.5,2.9c-1.9,0.5-3.7,0.9-5.3,1.3c-0.4,0.1-0.9,0.1-1.3,0c-0.4-0.2-0.8-0.5-0.9-1c-0.2-0.7-0.3-1.4-0.4-2.1
		c-0.2-1.3-0.4-2.3-0.5-3c-0.1-0.4-0.1-0.7-0.1-1.1C287.1,157.7,287.2,158.1,287.3,158.5z"/>
	<polygon class="st7" points="295.7,297.8 294.6,389.9 297.5,390.6 304.5,295.8 	"/>
	<polygon class="st7" points="321.1,299 351.5,390.5 355.4,390.5 334.1,299 	"/>
	<polygon class="st7" points="268.9,299 245.9,390.5 249,390.5 278,299 	"/>
	<polygon class="st7" points="272.3,305.2 339,349.9 339,347.6 274.1,305.2 	"/>
	<polygon class="st7" points="327.1,303.1 258.8,348.9 258.8,352.5 329.2,305.2 	"/>
	<path class="st8" d="M345.2,289.7l-84.8-1.4c-2.7,0-5.1,2-5.4,4.7l0,0c0,0.2,0,0.4,0,0.6c-0.1,3,2.3,5.4,5.2,5.4l83.6,1.5
		L345.2,289.7z"/>
	<g class="st12">
		<path d="M345.2,289.7l-84.8-1.4c-2.7,0-5.1,2-5.4,4.7l0,0c0,0.2,0,0.4,0,0.6c-0.1,3,2.3,5.4,5.2,5.4l83.6,1.5L345.2,289.7z"/>
	</g>
	<path class="st8" d="M358.7,189.4c0-0.3,0.1-0.7,0-1c-0.2-2.6-2.4-4.5-5-4.3l-6.7,0.6l-6.6,68.5l-50.3-4.5c-0.4,0-0.8-0.1-1.2,0
		c-6.1,0.1-10.9,5.1-10.8,11.2L278,299l65.9,1.6l8.4-64.6L358.7,189.4z"/>
</g>
</svg>
